# File created by Blade
# Date/Time:  Tue Sep 30 19:11:52 2014
#---------------------------------------------------------
:version 1.10
:name HOM
:units
  mass 1.0
  length 1.000000
  angle deg
:documentation
     Acclaim Skeleton File
:root
   axis xyz
   order TX TY TZ RX RY RZ
   position 0.000000 0.000000 0.000000
   orientation 0 0 0
:bonedata
   begin
      id 1
      name Spine_dum
      direction 0.000000 1.000000 0.000000
      length 7.508948
      axis 0.0 0.0 0.0 xyz
   end
   begin
      id 2
      name LeftUpLeg_dum
      direction 1.000000 0.000000 0.000000
      length 3.000560
      axis 0.0 0.0 0.0 xyz
   end
   begin
      id 3
      name RightUpLeg_dum
      direction -1.000000 0.000000 0.000000
      length 3.000560
      axis 0.0 0.0 0.0 xyz
   end
   begin
      id 4
      name Spine
      direction 0.000000 1.000000 0.000000
      length 0.000000
      axis 0.0 0.0 0.0 xyz
      dof rx ry rz
   end
   begin
      id 5
      name Spine_dum1
      direction 0.000000 1.000000 0.000000
      length 13.861154
      axis 0.0 0.0 0.0 xyz
   end
   begin
      id 6
      name Spine_dum2
      direction 0.000000 1.000000 0.000000
      length 8.204781
      axis 0.0 0.0 0.0 xyz
   end
   begin
      id 7
      name Spine_dum3
      direction 0.000000 1.000000 0.000000
      length 8.204781
      axis 0.0 0.0 0.0 xyz
   end
   begin
      id 8
      name Head
      direction 0.000000 1.000000 0.000000
      length 4.527550
      axis 0.0 0.0 0.0 xyz
      dof rx ry rz
   end
   begin
      id 9
      name LeftShoulder
      direction 1.000000 0.000000 0.000000
      length 6.635956
      axis 0.0 0.0 -90.0 xyz
      dof rx ry rz
   end
   begin
      id 10
      name LeftArm
      direction 1.000000 0.000000 0.000000
      length 10.274218
      axis 0.0 0.0 -90.0 xyz
      dof rx ry rz
   end
   begin
      id 11
      name LeftForeArm
      direction 1.000000 0.000000 0.000000
      length 8.522147
      axis 0.0 0.0 -90.0 xyz
      dof ry rz rx
   end
   begin
      id 12
      name LeftHand
      direction 0.000000 0.000000 0.000000
      length 0.000000
      axis 0.0 0.0 -90.0 xyz
      dof rx ry rz
   end
   begin
      id 13
      name LeftHand_dum1
      direction 0.000000 0.000000 0.000000
      length 0.000000
      axis 0.0 0.0 -90.0 xyz
   end
   begin
      id 14
      name LeftHand_dum2
      direction 1.000000 0.000000 0.000000
      length 3.937000
      axis 0.0 0.0 -90.0 xyz
   end
   begin
      id 15
      name LeftHandThumb1
      direction 0.000000 0.000000 1.000000
      length 3.937000
      axis 0.0 0.0 -90.0 xyz
      dof rx rz ry
   end
   begin
      id 16
      name RightShoulder
      direction -1.000000 0.000000 0.000000
      length 6.635956
      axis 0.0 0.0 90.0 xyz
      dof rx ry rz
   end
   begin
      id 17
      name RightArm
      direction -1.000000 0.000000 0.000000
      length 10.274218
      axis 0.0 0.0 90.0 xyz
      dof rx ry rz
   end
   begin
      id 18
      name RightForeArm
      direction -1.000000 0.000000 0.000000
      length 8.522147
      axis 0.0 0.0 90.0 xyz
      dof ry rz rx
   end
   begin
      id 19
      name RightHand
      direction 0.000000 0.000000 0.000000
      length 0.000000
      axis 0.0 0.0 90.0 xyz
      dof rx ry rz
   end
   begin
      id 20
      name RightHand_dum1
      direction 0.000000 0.000000 0.000000
      length 0.000000
      axis 0.0 0.0 90.0 xyz
   end
   begin
      id 21
      name RightHand_dum2
      direction -1.000000 0.000000 0.000000
      length 3.937000
      axis 0.0 0.0 90.0 xyz
   end
   begin
      id 22
      name RightHandThumb1
      direction 0.000000 0.000000 1.000000
      length 3.937000
      axis 0.0 0.0 90.0 xyz
      dof rx rz ry
   end
   begin
      id 23
      name LeftUpLeg
      direction 0.000000 -1.000000 0.000000
      length 16.490845
      axis 0.0 0.0 0.0 xyz
      dof rx ry rz
   end
   begin
      id 24
      name LeftLeg
      direction 0.000000 -1.000000 0.000000
      length 14.556576
      axis 0.0 0.0 0.0 xyz
      dof rx ry rz
   end
   begin
      id 25
      name LeftFoot
      direction 0.000000 -0.258819 0.965926
      length 4.831116
      axis 15.0 0.0 0.0 xyz
      dof rx ry rz
   end
   begin
      id 26
      name LeftToeBase
      direction 0.000000 0.000000 1.000000
      length 2.952750
      axis 0.0 0.0 0.0 xyz
      dof rx ry rz
   end
   begin
      id 27
      name RightUpLeg
      direction 0.000000 -1.000000 0.000000
      length 16.490845
      axis 0.0 0.0 0.0 xyz
      dof rx ry rz
   end
   begin
      id 28
      name RightLeg
      direction 0.000000 -1.000000 0.000000
      length 14.556576
      axis 0.0 0.0 0.0 xyz
      dof rx ry rz
   end
   begin
      id 29
      name RightFoot
      direction 0.000000 -0.258819 0.965926
      length 4.831116
      axis 15.0 0.0 0.0 xyz
      dof rx ry rz
   end
   begin
      id 30
      name RightToeBase
      direction 0.000000 0.000000 1.000000
      length 2.952750
      axis 0.0 0.0 0.0 xyz
      dof rx ry rz
   end
:hierarchy
   begin
      root Spine_dum LeftUpLeg_dum RightUpLeg_dum
      Spine_dum Spine
      LeftUpLeg_dum LeftUpLeg
      RightUpLeg_dum RightUpLeg
      Spine Spine_dum1 Spine_dum2 Spine_dum3
      Spine_dum1 Head
      Spine_dum2 LeftShoulder
      Spine_dum3 RightShoulder
      LeftShoulder LeftArm
      LeftArm LeftForeArm
      LeftForeArm LeftHand
      LeftHand LeftHand_dum1 LeftHand_dum2
      LeftHand_dum1 LeftHandThumb1
      RightShoulder RightArm
      RightArm RightForeArm
      RightForeArm RightHand
      RightHand RightHand_dum1 RightHand_dum2
      RightHand_dum1 RightHandThumb1
      LeftUpLeg LeftLeg
      LeftLeg LeftFoot
      LeftFoot LeftToeBase
      RightUpLeg RightLeg
      RightLeg RightFoot
      RightFoot RightToeBase
   end

# File created by Blade
# Date/Time:  Thu Sep 25 15:55:53 2014
# Frame Rate: 120.000 fps
#------------------------------------------------------
:FULLY-SPECIFIED
:DEGREES
63
root -3.799329 32.927119 -3.035060 10.700895 -5.694216 -1.549969
Spine -10.710133 9.411593 0.564589
Head -10.526931 -7.310928 9.945999
LeftShoulder -12.174521 23.747695 24.534935
LeftArm 24.988796 -21.318171 -33.502260
LeftForeArm 6.575297 0.000000 15.420124
LeftHand -28.218665 -0.000000 -2.779230
LeftHandThumb1 -26.253704 0.000000 33.147579
RightShoulder -15.019937 12.299766 -35.929776
RightArm -4.835830 6.193375 36.987214
RightForeArm -28.215111 -0.000000 17.944309
RightHand -8.875373 -0.000000 5.077341
RightHandThumb1 -24.326973 -0.000000 -32.862282
LeftUpLeg -6.799506 9.384476 3.425212
LeftLeg 3.373405 -0.000000 -0.000000
LeftFoot -13.412468 12.531926 -22.541133
LeftToeBase 4.551303 -0.000000 -0.000000
RightUpLeg -8.925727 -5.849310 1.845679
RightLeg 4.029382 -0.000000 -0.000000
RightFoot -8.295216 -1.861537 -6.931501
RightToeBase -0.994159 -0.000000 0.000000
64
root -3.829384 32.930123 -3.077710 10.690543 -5.711003 -1.514255
Spine -10.603518 9.470567 0.552701
Head -10.549704 -7.284022 9.881291
LeftShoulder -12.194582 23.847801 24.381726
LeftArm 25.203085 -21.118482 -33.861578
LeftForeArm 6.244915 -0.000000 15.499955
LeftHand -28.177422 -0.000000 -2.517067
LeftHandThumb1 -26.253704 0.000000 33.147579
RightShoulder -14.947709 12.344149 -35.800752
RightArm -4.751821 5.679613 37.277315
RightForeArm -27.936835 0.000000 17.982483
RightHand -8.793372 0.000000 4.981624
RightHandThumb1 -24.326973 -0.000000 -32.862282
LeftUpLeg -6.982189 9.263604 3.455288
LeftLeg 3.625691 -0.000000 -0.000000
LeftFoot -13.479730 12.622420 -22.726411
LeftToeBase 4.589883 -0.000000 -0.000000
RightUpLeg -9.010086 -5.825289 1.877421
RightLeg 4.068179 -0.000000 -0.000000
RightFoot -8.273902 -1.888158 -7.033633
RightToeBase -1.018268 -0.000000 0.000000
65
root -3.859995 32.933591 -3.121272 10.689128 -5.739298 -1.468955
Spine -10.517787 9.564460 0.520977
Head -10.570647 -7.329687 9.835087
LeftShoulder -12.119473 23.769683 24.321382
LeftArm 25.271077 -20.923490 -34.317629
LeftForeArm 6.250968 -0.000000 15.665390
LeftHand -28.064948 -0.000000 -2.453301
LeftHandThumb1 -26.253704 0.000000 33.147579
RightShoulder -14.878969 12.403044 -35.712267
RightArm -4.637285 5.489597 37.640321
RightForeArm -27.969921 -0.000000 17.878651
RightHand -8.769796 -0.000000 4.889350
RightHandThumb1 -24.326973 -0.000000 -32.862282
LeftUpLeg -7.153256 9.072706 3.485289
LeftLeg 3.843203 -0.000000 -0.000000
LeftFoot -13.530342 12.775039 -22.897982
LeftToeBase 4.584972 -0.000000 -0.000000
RightUpLeg -9.101837 -5.778567 1.895695
RightLeg 4.096751 -0.000000 -0.000000
RightFoot -8.232616 -1.909524 -7.134977
RightToeBase -1.051631 -0.000000 0.000000
66
root -3.894240 32.937324 -3.169820 10.699056 -5.735337 -1.437273
Spine -10.415142 9.641710 0.509737
Head -10.635092 -7.347020 9.766562
LeftShoulder -12.062333 23.902569 24.189264
LeftArm 25.434906 -20.857816 -34.785546
LeftForeArm 6.041837 -0.000000 15.893705
LeftHand -28.004848 -0.000000 -2.229455
LeftHandThumb1 -26.253704 0.000000 33.147579
RightShoulder -14.800790 12.457351 -35.589235
RightArm -4.566570 5.258677 37.948006
RightForeArm -27.944821 -0.000000 17.847131
RightHand -8.620604 -0.000000 4.952461
RightHandThumb1 -24.326973 -0.000000 -32.862282
LeftUpLeg -7.362970 8.850764 3.535651
LeftLeg 4.089931 -0.000000 -0.000000
LeftFoot -13.603673 12.927549 -23.116459
LeftToeBase 4.560263 -0.000000 -0.000000
RightUpLeg -9.215914 -5.732693 1.943919
RightLeg 4.137801 -0.000000 -0.000000
RightFoot -8.192866 -1.993837 -7.266030
RightToeBase -0.981163 -0.000000 0.000000
67
root -3.927505 32.940885 -3.217402 10.707723 -5.726473 -1.374036
Spine -10.316410 9.674736 0.470377
Head -10.680520 -7.316200 9.688597
LeftShoulder -12.092118 23.942001 24.038221
LeftArm 25.659395 -20.639072 -35.216378
LeftForeArm 5.798812 -0.000000 16.040833
LeftHand -28.038333 0.000000 -1.814597
LeftHandThumb1 -26.253704 0.000000 33.147579
RightShoulder -14.751072 12.514691 -35.449390
RightArm -4.405001 4.880398 38.292415
RightForeArm -27.755204 -0.000000 17.797412
RightHand -8.771675 -0.000000 4.834464
RightHandThumb1 -24.326973 -0.000000 -32.862282
LeftUpLeg -7.559051 8.639994 3.557930
LeftLeg 4.306039 -0.000000 -0.000000
LeftFoot -13.614731 13.053927 -23.301761
LeftToeBase 4.538769 -0.000000 -0.000000
RightUpLeg -9.328108 -5.719436 1.960423
RightLeg 4.173522 -0.000000 -0.000000
RightFoot -8.153365 -2.049724 -7.438903
RightToeBase -1.084585 -0.000000 0.000000
68
root -3.962713 32.943935 -3.265982 10.702022 -5.682881 -1.328166
Spine -10.195189 9.736672 0.464666
Head -10.751938 -7.331281 9.605987
LeftShoulder -12.003559 23.859777 23.935419
LeftArm 25.738282 -20.332882 -35.635075
LeftForeArm 5.616062 -0.000000 16.254564
LeftHand -28.072161 -0.000000 -1.544071
LeftHandThumb1 -26.253704 0.000000 33.147579
RightShoulder -14.605783 12.575328 -35.318276
RightArm -4.486283 4.428585 38.607548
RightForeArm -27.448319 -0.000000 17.881760
RightHand -8.715434 -0.000000 4.398688
RightHandThumb1 -24.326973 -0.000000 -32.862282
LeftUpLeg -7.844854 8.766284 3.577438
LeftLeg 4.715258 -0.000000 -0.000000
LeftFoot -13.550527 12.805187 -23.360203
LeftToeBase 4.414647 -0.000000 -0.000000
RightUpLeg -9.436607 -5.651196 1.989228
RightLeg 4.246132 -0.000000 -0.000000
RightFoot -8.151863 -2.165349 -7.556714
RightToeBase -1.042939 -0.000000 0.000000
69
root -4.000352 32.946318 -3.318110 10.709814 -5.623533 -1.282317
Spine -10.072917 9.743029 0.449628
Head -10.843490 -7.291449 9.537089
LeftShoulder -11.931034 23.885412 23.767100
LeftArm 25.775045 -20.207066 -36.025001
LeftForeArm 5.689450 -0.000000 16.542571
LeftHand -27.860205 0.000000 -1.738160
LeftHandThumb1 -26.253704 0.000000 33.147579
RightShoulder -14.562890 12.577819 -35.188561
RightArm -4.335897 4.236442 39.040009
RightForeArm -27.312873 -0.000000 17.896649
RightHand -8.896409 -0.000000 4.164881
RightHandThumb1 -24.326973 -0.000000 -32.862282
LeftUpLeg -8.125126 8.785278 3.602220
LeftLeg 5.073356 -0.000000 -0.000000
LeftFoot -13.574771 12.677279 -23.548957
LeftToeBase 4.478751 -0.000000 -0.000000
RightUpLeg -9.552578 -5.622777 2.030001
RightLeg 4.290735 -0.000000 -0.000000
RightFoot -8.123867 -2.261918 -7.672888
RightToeBase -1.039091 -0.000000 0.000000
